<svg xmlns="http://www.w3.org/2000/svg" viewBox="0 0 480 161" width="480" height="161" role="img" aria-label="nomadx.sys — terminal-native tooling for linux">
  <style>
    text { font-family: ui-monospace, "Cascadia Mono", Menlo, Consolas, monospace; white-space: pre; }
    .sweep { transform-origin: 26px 0; transform: scaleX(0); animation: sweep 900ms cubic-bezier(0.16,1,0.3,1) 400ms forwards; }
    .cursor { animation: blink 1.1s steps(1) infinite; }
    @keyframes sweep { to { transform: scaleX(1); } }
    @keyframes blink { 50% { opacity: 0; } }
    @media (prefers-reduced-motion: reduce) {
      .sweep { animation: none; transform: scaleX(1); }
      .scan { animation: none; opacity: 0; }
      .cursor { animation: none; }
    }
  </style>
  <defs>
    <linearGradient id="m" gradientUnits="userSpaceOnUse" x1="26.0" y1="0" x2="454.0" y2="0"><stop offset="0" stop-color="#37f499"/><stop offset="0.55" stop-color="#04d1f9"/><stop offset="1" stop-color="#a48cf2"/></linearGradient>
  </defs>
  <rect fill="#212337" x="0" y="0" width="480" height="161" rx="8"/>
  <rect fill="none" stroke="#3b4261" stroke-width="1.5" x="14" y="14" width="452" height="133" rx="6"/>
  <rect fill="#212337" x="32" y="8" width="78" height="12"/>
  <text fill="#7081d0" x="38" y="19" font-size="10" textLength="60" lengthAdjust="spacing" xml:space="preserve">nomadx.sys</text>
  <g fill="url(#m)">
    <rect x="25.83" y="31.86" width="67.47" height="14.28"/>
    <rect x="143.32" y="31.86" width="50.69" height="14.28"/>
    <rect x="227.24" y="31.86" width="33.90" height="70.28"/>
    <rect x="311.17" y="31.86" width="33.90" height="70.28"/>
    <rect x="386.69" y="31.86" width="50.69" height="14.28"/>
    <rect x="25.83" y="45.86" width="33.90" height="56.28"/>
    <rect x="76.19" y="45.86" width="33.90" height="28.28"/>
    <rect x="126.54" y="45.86" width="33.90" height="56.28"/>
    <rect x="176.89" y="45.86" width="33.90" height="56.28"/>
    <rect x="260.81" y="45.86" width="17.12" height="28.28"/>
    <rect x="294.38" y="45.86" width="17.12" height="28.28"/>
    <rect x="369.91" y="45.86" width="33.90" height="56.28"/>
    <rect x="420.26" y="45.86" width="33.90" height="56.28"/>
    <rect x="277.60" y="59.86" width="17.12" height="28.28"/>
    <rect x="59.40" y="73.86" width="33.90" height="14.28"/>
    <rect x="160.11" y="73.86" width="17.12" height="14.28"/>
    <rect x="403.48" y="73.86" width="17.12" height="14.28"/>
    <rect x="76.19" y="87.86" width="33.90" height="14.28"/>
  </g>
  <rect class="sweep" x="26" y="112" width="428" height="2" fill="url(#m)"/>
  <text fill="#ABB4DA" x="26" y="132" font-size="11" textLength="218" lengthAdjust="spacing" xml:space="preserve">terminal-native tooling for linux</text>
  <rect class="cursor" fill="#37f499" x="249" y="123.4" width="5.5" height="10.4"/>
</svg>
